<svg height="512" viewBox="0 0 64 64" width="512" xmlns="http://www.w3.org/2000/svg"><g fill="#F8F1E5"><path d="m61.9 54.553-5.9-11.789v-31.764a3 3 0 0 0 -3-3h-42a3 3 0 0 0 -3 3v31.764l-5.895 11.789a1 1 0 0 0 -.105.447v5a2 2 0 0 0 2 2h56a2 2 0 0 0 2-2v-5a1 1 0 0 0 -.1-.447zm-32.9 1.447h6v1h-6zm-24.382-2 5-10h44.764l5 10zm5.382-36h44v24h-44zm1-8h42a1 1 0 0 1 1 1v5h-44v-5a1 1 0 0 1 1-1zm-7 50v-4h23v1a2 2 0 0 0 2 2h6a2 2 0 0 0 2-2v-1h23v4z"/><path d="m18 50h28v2h-28z"/><path d="m12 12h2v2h-2z"/><path d="m16 12h2v2h-2z"/><path d="m20 12h2v2h-2z"/><path d="m32 20a9.01 9.01 0 0 0 -9 9v4a1 1 0 0 0 .293.707l1.6 1.6-.863 3.45a1 1 0 0 0 .97 1.243h14a1 1 0 0 0 .97-1.243l-.863-3.45 1.6-1.6a1 1 0 0 0 .293-.707v-4a9.01 9.01 0 0 0 -9-9zm7 12.586-1.707 1.707a1 1 0 0 0 -.263.95l.689 2.757h-2.719v-4h-2v4h-2v-4h-2v4h-2.719l.689-2.757a1 1 0 0 0 -.263-.95l-1.707-1.707v-3.586a7 7 0 0 1 14 0z"/><path d="m29 26a3 3 0 1 0 3 3 3 3 0 0 0 -3-3zm0 4a1 1 0 1 1 1-1 1 1 0 0 1 -1 1z"/><path d="m32 29a3 3 0 1 0 3-3 3 3 0 0 0 -3 3zm4 0a1 1 0 1 1 -1-1 1 1 0 0 1 1 1z"/></g></svg>
