<svg height="300" viewBox="20 15 25 25" width="300" xmlns="http://www.w3.org/2000/svg"><g fill="#F8F1E5"><path id="face" d="m32 20a9.01 9.01 0 0 0 -9 9v4a1 1 0 0 0 .293.707l1.6 1.6-.863 3.45a1 1 0 0 0 .97 1.243h14a1 1 0 0 0 .97-1.243l-.863-3.45 1.6-1.6a1 1 0 0 0 .293-.707v-4a9.01 9.01 0 0 0 -9-9zm7 12.586-1.707 1.707a1 1 0 0 0 -.263.95l.689 2.757h-2.719v-4h-2v4h-2v-4h-2v4h-2.719l.689-2.757a1 1 0 0 0 -.263-.95l-1.707-1.707v-3.586a7 7 0 0 1 14 0z"/><path id="eye1" d="m29 26a3 3 0 1 0 3 3 3 3 0 0 0 -3-3zm0 4a1 1 0 1 1 1-1 1 1 0 0 1 -1 1z"/><path id="eye2" d="m32 29a3 3 0 1 0 3-3 3 3 0 0 0 -3 3zm4 0a1 1 0 1 1 -1-1 1 1 0 0 1 1 1z"/></g></svg>